<svg width="392" height="309" viewBox="0 0 392 309" fill="none" xmlns="http://www.w3.org/2000/svg">
<g clip-path="url(#clip0_18_330)">
<path d="M202.806 259.521L214.284 256.409L210.935 267L214.284 277.561L202.806 274.479L191.295 277.561L194.677 267L191.295 256.409L202.806 259.521Z" fill="black" stroke="white" stroke-miterlimit="10"/>
</g>
<g clip-path="url(#clip1_18_330)">
<path d="M81.4794 207.305L102.005 217.595L81.4794 227.968L70.2508 246.812L59.0222 227.968L38.4963 217.595L59.0222 207.305L70.2508 188.379L81.4794 207.305Z" fill="black" stroke="white" stroke-miterlimit="10"/>
</g>
<path d="M225.261 120.878C269.884 143.525 308.175 167.518 334.009 187.994C346.929 198.235 356.713 207.581 362.618 215.425C365.571 219.348 367.537 222.872 368.45 225.928C369.363 228.982 369.209 231.516 368.009 233.518C366.809 235.52 364.561 236.991 361.267 237.91C357.971 238.83 353.681 239.181 348.499 238.975C338.139 238.564 324.329 235.934 308.022 231.342C275.417 222.16 232.934 205.16 188.311 182.513C143.687 159.866 105.396 135.873 79.562 115.396C66.6419 105.155 56.8578 95.8103 50.9529 87.9664C47.9996 84.0434 46.0337 80.5179 45.121 77.4624C44.2087 74.4085 44.362 71.874 45.562 69.8722C46.7622 67.8705 49.0102 66.3991 52.3044 65.48C55.6002 64.5605 59.8894 64.2105 65.0712 64.4162C75.4321 64.8274 89.2425 67.4558 105.549 72.048C138.154 81.2299 180.637 98.2313 225.261 120.878Z" stroke="black"/>
<path d="M212.068 142.883C256.692 165.53 294.983 189.522 320.817 209.999C333.737 220.239 343.52 229.585 349.425 237.429C352.379 241.352 354.345 244.877 355.258 247.932C356.17 250.986 356.017 253.521 354.817 255.522C353.617 257.524 351.368 258.995 348.074 259.915C344.779 260.834 340.489 261.185 335.307 260.979C324.946 260.568 311.136 257.939 294.83 253.347C262.224 244.165 219.742 227.164 175.118 204.518C130.495 181.871 92.2036 157.877 66.3695 137.4C53.4494 127.16 43.6653 117.815 37.7604 109.971C34.807 106.048 32.8412 102.522 31.9285 99.4667C31.0162 96.4128 31.1695 93.8783 32.3695 91.8765C33.5697 89.8748 35.8177 88.4034 39.1119 87.4843C42.4077 86.5648 46.6969 86.2148 51.8787 86.4205C62.2396 86.8317 76.05 89.4601 92.3567 94.0523C124.962 103.234 167.445 120.236 212.068 142.883Z" stroke="black"/>
<path d="M198.877 164.887C243.5 187.534 281.791 211.526 307.625 232.003C320.546 242.244 330.329 251.59 336.234 259.434C339.187 263.357 341.154 266.881 342.066 269.937C342.979 272.991 342.825 275.525 341.625 277.527C340.425 279.529 338.177 281 334.883 281.919C331.587 282.839 327.298 283.19 322.116 282.984C311.755 282.573 297.945 279.943 281.638 275.351C249.033 266.169 206.55 249.169 161.927 226.522C117.303 203.875 79.0123 179.882 53.1782 159.405C40.2581 149.164 30.4741 139.819 24.5691 131.975C21.6158 128.052 19.65 124.527 18.7372 121.471C17.825 118.417 17.9782 115.883 19.1782 113.881C20.3784 111.879 22.6264 110.408 25.9206 109.489C29.2164 108.569 33.5056 108.219 38.6874 108.425C49.0483 108.836 62.8587 111.465 79.1654 116.057C111.771 125.239 154.254 142.24 198.877 164.887Z" stroke="black"/>
<ellipse cx="85.7525" cy="62.7" rx="10.1077" ry="9.3" fill="#B9FF66"/>
<ellipse cx="274.539" cy="261" rx="6.52112" ry="6" fill="#B9FF66"/>
<ellipse cx="53.1468" cy="38.7" rx="15.3246" ry="14.1" fill="black"/>
<path d="M199.528 230.154C195.417 231.447 190.719 228.885 189.085 224.443L163.653 155.886L178.514 151.209L203.971 219.86C205.605 224.255 203.613 228.861 199.528 230.154Z" fill="black"/>
<path d="M197.306 231C196.106 231 194.881 230.741 193.706 230.201C191.331 229.12 189.442 227.099 188.523 224.607L163.091 156.05C162.989 155.792 163.142 155.486 163.449 155.392L178.309 150.715C178.463 150.668 178.616 150.668 178.743 150.739C178.871 150.809 178.973 150.903 179.024 151.044L204.481 219.695C206.192 224.349 204.047 229.261 199.681 230.647C198.94 230.882 198.123 231 197.306 231ZM164.368 156.215L189.621 224.278C190.438 226.511 192.123 228.344 194.217 229.284C195.902 230.036 197.715 230.177 199.349 229.66C203.128 228.462 204.966 224.137 203.434 220.024L178.156 151.867L164.368 156.215Z" fill="black"/>
<path d="M175.883 92.0291L127.803 123.593L109.087 141.479L101.734 153.441L101.708 153.535C100.253 155.604 101.095 160.375 103.827 165.24C106.508 170.034 110.287 173.372 112.943 173.56L112.866 173.607L126.986 175.017L153.414 171.139L209.511 152.666L279.243 163.665L279.728 163.688C262.212 160.68 238.568 139.128 221.384 108.645C204.226 78.1861 198.761 48.0793 206.294 33.2256H206.268L176.266 91.277L175.883 92.0291Z" fill="#B9FF66"/>
<path d="M291.317 162.362C308.551 154.124 305.218 116.777 283.874 78.9461C262.53 41.1149 231.256 17.1248 214.022 25.3628C196.788 33.6007 200.121 70.9472 221.465 108.778C242.81 146.61 274.084 170.6 291.317 162.362Z" fill="white"/>
<path d="M283.738 164.511C276.231 164.511 267.192 160.657 257.464 153.159C244.212 142.959 231.215 127.236 220.874 108.857C205.222 81.03 198.762 52.4978 204.43 36.1635C206.32 30.7109 209.486 26.9035 213.801 24.8588C222.38 20.8163 234.458 24.2477 247.837 34.5419C261.089 44.742 274.086 60.4652 284.427 78.8442C300.105 106.671 306.565 135.203 300.871 151.538C298.981 156.99 295.815 160.798 291.5 162.842C289.176 163.971 286.572 164.511 283.738 164.511ZM221.614 24.2477C218.984 24.2477 216.533 24.7413 214.337 25.7989C210.277 27.7026 207.316 31.322 205.528 36.5161C199.936 52.6153 206.371 80.842 221.895 108.434C243.037 145.968 274.035 169.987 291.015 161.973C295.075 160.069 298.037 156.45 299.824 151.256C305.416 135.156 298.981 106.93 283.457 79.3378C265.047 46.6692 239.207 24.2477 221.614 24.2477Z" fill="black"/>
<path d="M283.738 164.511C276.231 164.511 267.192 160.657 257.463 153.159C244.212 142.959 231.215 127.236 220.874 108.857C205.222 81.03 198.762 52.4978 204.43 36.1635C206.32 30.7109 209.486 26.9035 213.801 24.8588C219.546 22.1325 227.053 22.8141 235.505 26.8095C243.599 30.6404 252.357 37.4327 260.885 46.4342C261.089 46.6457 261.064 46.9747 260.834 47.1627C260.604 47.3508 260.247 47.3273 260.042 47.1157C242.731 28.8307 225.215 20.6518 214.337 25.7989C210.277 27.7026 207.315 31.322 205.528 36.5161C199.936 52.6153 206.371 80.842 221.895 108.434C240.279 141.079 266.145 163.524 283.712 163.524C286.342 163.524 288.793 163.031 290.989 161.973C295.049 160.069 298.011 156.45 299.798 151.256C305.39 135.156 298.956 106.93 283.431 79.3378C278.81 71.1119 273.601 63.3795 268.009 56.3523C267.83 56.1172 267.881 55.7882 268.137 55.6237C268.392 55.4592 268.749 55.5062 268.928 55.7412C274.571 62.8155 279.78 70.5948 284.453 78.8677C300.105 106.671 306.565 135.203 300.871 151.538C298.981 156.99 295.815 160.798 291.5 162.842C289.176 163.971 286.572 164.511 283.738 164.511Z" fill="black"/>
<path d="M252.215 114.203C256.207 112.295 255.439 103.65 250.5 94.8953C245.56 86.1402 238.319 80.5898 234.327 82.4983C230.334 84.4067 231.102 93.0512 236.042 101.806C240.982 110.561 248.222 116.112 252.215 114.203Z" fill="#B9FF66"/>
<path d="M250.468 115.109C246.076 115.109 239.948 109.891 235.53 102.018C231.854 95.4842 230.347 88.7624 231.7 84.8845C232.186 83.5214 232.977 82.5577 234.075 82.0407C238.416 79.996 245.846 85.5661 251.004 94.7086C254.681 101.242 256.187 107.964 254.834 111.842C254.349 113.205 253.557 114.169 252.459 114.686C251.846 114.968 251.183 115.109 250.468 115.109ZM236.067 82.6283C235.53 82.6283 235.02 82.7223 234.586 82.9338C233.743 83.3333 233.13 84.0854 232.747 85.19C231.496 88.8094 232.952 95.2491 236.501 101.548C241.199 109.891 248.272 115.508 251.923 113.769C252.766 113.37 253.378 112.618 253.761 111.513C255.013 107.87 253.532 101.454 250.008 95.1551C245.872 87.8458 239.948 82.6283 236.067 82.6283Z" fill="#B9FF66"/>
<path d="M279.857 155.745C273.269 155.745 265.354 152.36 256.825 145.803C245.233 136.872 233.845 123.1 224.806 107.024C211.095 82.6751 205.452 57.6918 210.405 43.3787C212.065 38.5842 214.848 35.2468 218.653 33.4371C227.385 29.3242 240.229 34.0717 253.915 46.4576C254.144 46.6691 254.144 46.9746 253.915 47.1862C253.685 47.3977 253.353 47.3977 253.123 47.1862C239.794 35.1293 227.411 30.4288 219.163 34.3538C215.64 36.0224 213.061 39.1483 211.478 43.6843C206.601 57.7388 212.218 82.4166 225.802 106.554C241.863 135.109 264.46 154.711 279.831 154.711C282.129 154.711 284.249 154.264 286.189 153.371C289.713 151.702 292.292 148.576 293.875 144.04C298.752 129.986 293.134 105.308 279.55 81.1709C275.439 73.8851 270.843 67.0459 265.89 60.8647C265.711 60.6296 265.762 60.3006 266.018 60.1361C266.273 59.9716 266.63 60.0186 266.809 60.2536C271.814 66.5053 276.435 73.368 280.572 80.7009C294.283 105.05 299.926 130.033 294.973 144.346C293.313 149.14 290.53 152.478 286.725 154.287C284.632 155.251 282.334 155.745 279.857 155.745Z" fill="black"/>
<path d="M127.012 175.51C126.987 175.51 126.961 175.51 126.961 175.51L112.841 174.1C112.765 174.1 112.688 174.077 112.611 174.03C109.701 173.607 106.024 170.222 103.343 165.475C100.483 160.469 99.6404 155.58 101.198 153.277L101.223 153.206L108.577 141.22C108.603 141.173 108.628 141.15 108.654 141.126L127.37 123.241C127.395 123.217 127.421 123.194 127.447 123.17L175.399 91.6767L205.733 32.9907C205.809 32.8732 205.911 32.7792 206.065 32.7322C206.218 32.6852 206.371 32.6852 206.499 32.7557C206.779 32.8732 206.907 33.1788 206.779 33.4373C199.094 48.5965 205.171 78.7268 221.87 108.387C238.594 138.094 261.907 160.093 279.857 163.125C280.138 163.172 280.342 163.407 280.316 163.689C280.291 163.947 280.035 164.135 279.755 164.159L279.269 164.135C279.244 164.135 279.218 164.135 279.193 164.135L209.588 153.159L153.618 171.585C153.593 171.585 153.542 171.609 153.516 171.609L127.089 175.487C127.064 175.51 127.038 175.51 127.012 175.51ZM113.25 173.113L127.012 174.476L153.312 170.598L209.384 152.149C209.486 152.125 209.563 152.102 209.665 152.125L272.324 161.996C255.395 155.157 235.607 134.968 220.925 108.881C206.345 82.9807 199.834 56.6813 203.409 40.065L176.394 92.2408C176.343 92.3113 176.292 92.3818 176.216 92.4288L128.187 123.993L109.547 141.784L102.194 153.771C102.194 153.794 102.168 153.818 102.168 153.818C100.84 155.721 101.734 160.422 104.313 165.005C106.841 169.494 110.492 172.878 112.994 173.043C113.097 173.043 113.173 173.066 113.25 173.113Z" fill="black"/>
<path d="M175.959 91.8411L206.268 33.2022H206.293C198.761 48.0558 204.251 78.1626 221.384 108.622C238.568 139.128 262.212 160.68 279.779 163.642L279.294 163.618L209.664 152.642L208.055 152.384C199.961 151.068 189.16 141.385 181.424 127.565C173.483 113.393 172.078 99.2679 175.602 92.5462L175.959 91.8411Z" fill="white"/>
<path d="M279.779 164.159C279.754 164.159 279.779 164.159 279.779 164.159L279.269 164.135C279.243 164.135 279.217 164.135 279.192 164.135L209.562 153.159L207.953 152.901C199.399 151.514 188.548 141.432 180.913 127.824C172.257 112.359 171.823 98.5864 175.091 92.3347L175.474 91.6296L205.783 33.0142C205.859 32.8967 205.962 32.8026 206.115 32.7556C206.268 32.7086 206.421 32.7086 206.549 32.7791C206.83 32.8967 206.957 33.2022 206.83 33.4607C199.144 48.6199 205.221 78.7502 221.92 108.41C238.645 138.118 261.957 160.116 279.907 163.148C280.188 163.195 280.392 163.43 280.367 163.712C280.29 163.947 280.06 164.159 279.779 164.159ZM203.357 40.065L176.47 92.0762L176.087 92.7813C172.844 98.9859 173.789 112.852 181.909 127.33C189.39 140.68 199.936 150.551 208.157 151.867L209.766 152.125L272.298 161.996C255.369 155.157 235.581 134.968 220.899 108.881C206.319 82.9807 199.808 56.6813 203.357 40.065Z" fill="black"/>
<path d="M126.246 175.44C126.22 175.44 126.195 175.44 126.195 175.44L112.815 174.124C112.739 174.124 112.662 174.1 112.586 174.053C109.675 173.63 105.998 170.246 103.317 165.498C100.483 160.469 99.64 155.58 101.198 153.277L101.223 153.206L108.577 141.22C108.73 140.962 109.062 140.891 109.343 141.032C109.624 141.173 109.7 141.479 109.547 141.737L102.193 153.77C102.193 153.794 102.168 153.817 102.168 153.817C100.84 155.721 101.734 160.422 104.313 165.005C106.84 169.494 110.492 172.878 112.994 173.043C113.071 173.043 113.173 173.066 113.224 173.113L126.297 174.406C126.604 174.429 126.833 174.688 126.782 174.97C126.757 175.228 126.527 175.44 126.246 175.44Z" fill="black"/>
<path d="M127.14 174.923C122.799 174.641 116.722 168.977 112.305 161.15C107.632 152.854 106.534 144.276 109.394 141.22L101.759 153.442L101.708 153.536C100.253 155.604 101.095 160.375 103.827 165.24C106.508 170.034 110.287 173.372 112.943 173.56L112.866 173.607L127.14 174.923Z" fill="white"/>
<path d="M127.14 175.44C127.114 175.44 127.114 175.44 127.089 175.44C126.987 175.44 126.859 175.416 126.757 175.416L112.815 174.124C112.739 174.124 112.662 174.1 112.586 174.053C109.675 173.63 105.998 170.246 103.317 165.498C100.483 160.469 99.64 155.58 101.198 153.277L101.223 153.206L107.938 142.442C108.194 141.831 108.526 141.291 108.934 140.844C109.113 140.633 109.445 140.609 109.675 140.75C109.905 140.915 109.981 141.197 109.828 141.432L108.883 142.912C107.377 146.649 108.858 153.982 112.739 160.845C116.952 168.342 122.697 173.818 126.808 174.312L127.114 174.335C127.421 174.359 127.65 174.617 127.625 174.899C127.65 175.228 127.421 175.44 127.14 175.44ZM113.224 173.113L122.978 174.03C119.224 171.82 115.088 167.261 111.794 161.385C108.602 155.721 107.019 149.846 107.275 145.615L102.193 153.771C102.193 153.794 102.168 153.818 102.168 153.818C100.84 155.721 101.734 160.422 104.313 165.005C106.84 169.494 110.492 172.878 112.994 173.043C113.071 173.043 113.173 173.066 113.224 173.113Z" fill="black"/>
<path d="M152.469 171.233L153.592 171.021C147.515 172.196 137.915 163.735 131.148 151.726C124.229 139.457 122.926 127.212 127.829 123.593L127.19 124.181L109.445 141.149C106.534 144.158 107.606 152.783 112.304 161.127C116.824 169.165 123.233 174.899 127.599 174.876L152.469 171.233Z" fill="black"/>
<path d="M127.574 175.416C122.927 175.416 116.467 169.658 111.794 161.385C107.045 152.924 105.845 144.087 109.011 140.821L126.425 124.181C126.731 123.805 127.089 123.476 127.472 123.194C127.702 123.029 128.034 123.053 128.238 123.241C128.442 123.452 128.442 123.758 128.238 123.946L127.242 124.909C123.693 129.281 125.455 140.468 131.659 151.491C138.349 163.383 147.694 171.538 153.414 170.551L153.491 170.528C153.797 170.481 154.078 170.645 154.154 170.927C154.206 171.209 154.027 171.468 153.72 171.538C153.695 171.538 153.669 171.538 153.644 171.562L152.597 171.75H152.571L127.702 175.393C127.651 175.393 127.599 175.416 127.574 175.416ZM124.944 127.095L109.854 141.526C107.045 144.44 108.322 152.948 112.816 160.915C117.207 168.718 123.412 174.359 127.574 174.382L149.533 171.162C143.609 169.235 136.306 161.973 130.664 151.984C125.301 142.466 123.233 132.783 124.944 127.095Z" fill="black"/>
<path d="M234.33 82.4872C230.322 84.3674 230.909 93.0868 236.016 101.783C244.569 116.331 251.387 114.615 252.178 114.357C252.204 114.357 252.204 114.38 252.178 114.38L237.497 125.262C233.181 119.692 229.07 113.487 225.292 106.789C221.691 100.373 218.653 93.9799 216.253 87.7752L234.33 82.4872Z" fill="black"/>
<path d="M237.496 125.779C237.471 125.779 237.445 125.779 237.42 125.779C237.267 125.755 237.139 125.685 237.037 125.567C232.62 119.856 228.509 113.605 224.806 107.047C221.257 100.749 218.193 94.3325 215.742 87.9868C215.691 87.8457 215.691 87.7047 215.767 87.5872C215.844 87.4697 215.946 87.3757 216.099 87.3287L234.177 82.0406C234.458 81.9701 234.764 82.0876 234.867 82.3461C234.969 82.6047 234.867 82.8867 234.611 83.0042C233.743 83.4037 233.105 84.2028 232.722 85.378C231.471 89.0679 233.003 95.6016 236.552 101.595C244.901 115.79 251.336 114.169 252.025 113.934C252.28 113.84 252.587 113.957 252.715 114.169C252.842 114.38 252.791 114.686 252.587 114.85L237.854 125.661C237.752 125.732 237.624 125.779 237.496 125.779ZM216.993 88.1043C219.419 94.2384 222.381 100.443 225.802 106.554C229.377 112.9 233.36 118.94 237.624 124.51L250.365 115.062C247.455 114.944 241.965 112.947 235.53 102.018C231.802 95.6956 230.27 89.0209 231.624 85.0019C231.802 84.4849 232.007 84.0383 232.262 83.6153L216.993 88.1043Z" fill="black"/>
<path d="M309.875 48.9585C321.547 43.3162 326.062 30.0696 319.959 19.3712C313.855 8.67275 299.444 4.57391 287.772 10.2161C276.099 15.8583 271.584 29.105 277.687 39.8034C283.791 50.5018 298.202 54.6007 309.875 48.9585Z" fill="black"/>
<path d="M287.951 24.7411C289.075 23.331 290.734 22.4614 292.624 22.2733C294.054 22.1323 295.381 22.4144 296.633 23.1194C297.271 23.472 297.833 23.9185 298.369 24.4591C298.752 23.8245 299.211 23.2605 299.748 22.7904C300.795 21.8503 302.046 21.3097 303.45 21.1687C305.34 20.9807 307.178 21.4978 308.608 22.6494C310.012 23.7775 310.906 25.4227 311.136 27.2794C311.365 29.1831 310.804 31.0163 309.374 33.0375C308.097 34.8472 306.157 36.7274 303.91 38.9367C303.144 39.6888 302.275 40.5349 301.382 41.428C301.152 41.663 300.82 41.8275 300.463 41.851C300.105 41.898 299.773 41.804 299.467 41.616C298.369 40.9109 297.322 40.2528 296.403 39.6888C293.696 37.9966 291.347 36.5394 289.662 35.0353C287.772 33.3666 286.802 31.6744 286.572 29.7707C286.368 27.914 286.853 26.1278 287.951 24.7411Z" fill="white"/>
<path d="M376.096 50.1554C384.641 42.2897 384.641 29.5368 376.096 21.671C367.55 13.8052 353.695 13.8052 345.15 21.671C336.604 29.5368 336.604 42.2897 345.15 50.1554C353.695 58.0212 367.55 58.0212 376.096 50.1554Z" fill="#B9FF66"/>
<path d="M360.619 56.5638C348.261 56.5638 338.175 47.3038 338.175 35.905C338.175 24.5298 348.235 15.2463 360.619 15.2463C373.003 15.2463 383.063 24.5063 383.063 35.905C383.063 47.2803 373.003 56.5638 360.619 56.5638ZM360.619 16.2804C348.873 16.2804 339.298 25.0703 339.298 35.905C339.298 46.7162 348.848 55.5297 360.619 55.5297C372.364 55.5297 381.939 46.7397 381.939 35.905C381.939 25.0938 372.39 16.2804 360.619 16.2804Z" fill="#B9FF66"/>
<path d="M366.542 37.9028C365.317 37.9028 364.244 38.4434 363.529 39.2894L356.15 36.6337C356.15 36.5396 356.176 36.4691 356.176 36.3751C356.176 36.2106 356.15 36.0461 356.125 35.8816L363.683 32.6617C364.372 33.3903 365.393 33.8603 366.542 33.8838C368.636 33.8838 370.372 32.3092 370.372 30.3585C370.372 28.4077 368.662 26.8096 366.542 26.8096C364.449 26.8096 362.712 28.3842 362.712 30.335C362.712 30.4995 362.738 30.664 362.763 30.8285L355.205 34.0484C354.516 33.3198 353.495 32.8497 352.346 32.8262C350.252 32.8262 348.516 34.4009 348.516 36.3516C348.516 38.3023 350.226 39.9005 352.346 39.9005C353.571 39.9005 354.644 39.36 355.359 38.5139L362.738 41.1697C362.738 41.2637 362.712 41.3342 362.712 41.4282C362.712 43.3789 364.423 44.9771 366.542 44.9771C368.636 44.9771 370.372 43.4024 370.372 41.4517C370.347 39.501 368.636 37.9263 366.542 37.9028Z" fill="black"/>
<path d="M366.832 113.996C376.853 107.593 379.37 94.9695 372.455 85.7991C365.54 76.6288 351.811 74.3847 341.79 80.7868C331.77 87.1889 329.252 99.8129 336.167 108.983C343.082 118.154 356.811 120.398 366.832 113.996Z" fill="black"/>
<path d="M348.798 107.024L345.581 90.9715C345.427 90.1489 346.244 89.4674 347.113 89.6789L366.135 94.6379C367.105 94.8965 367.335 96.0481 366.544 96.6121L350.713 107.705C350.023 108.222 348.977 107.87 348.798 107.024Z" fill="white"/>
<path d="M354.095 179.749C366.47 174.204 371.648 160.532 365.661 149.211C359.674 137.891 344.789 133.209 332.414 138.754C320.039 144.299 314.861 157.972 320.848 169.292C326.836 180.612 341.721 185.294 354.095 179.749Z" fill="#B9FF66"/>
<path d="M343.129 182.608C340.473 182.608 337.766 182.232 335.137 181.409C328.702 179.435 323.493 175.299 320.48 169.705C317.467 164.135 317.008 157.813 319.178 151.89C323.672 139.692 338.124 133.041 351.427 137.107C357.861 139.081 363.07 143.218 366.083 148.811C369.096 154.381 369.556 160.704 367.385 166.626C363.76 176.403 353.776 182.608 343.129 182.608ZM343.384 136.966C333.196 136.966 323.646 142.889 320.199 152.243C318.131 157.907 318.565 163.947 321.451 169.259C324.336 174.594 329.315 178.566 335.468 180.446C348.184 184.324 361.998 177.978 366.288 166.321C368.356 160.657 367.922 154.616 365.036 149.305C362.151 143.97 357.172 139.998 351.018 138.118C348.491 137.319 345.912 136.966 343.384 136.966Z" fill="black"/>
<path d="M355.947 155.557C355.692 161.268 345.198 174.617 342.695 177.743C342.44 178.072 341.904 178.049 341.674 177.696C340.091 175.346 334.857 167.449 332.124 161.056C331.026 158.518 330.337 156.215 330.414 154.593C330.695 148.106 336.644 143.053 343.691 143.312C350.738 143.617 356.228 149.07 355.947 155.557Z" fill="black"/>
<path d="M347.31 158.896C349.594 156.794 349.594 153.386 347.31 151.285C345.027 149.183 341.324 149.183 339.041 151.285C336.758 153.386 336.758 156.794 339.041 158.896C341.324 160.998 345.027 160.998 347.31 158.896Z" fill="#B9FF66"/>
<defs>
<clipPath id="clip0_18_330">
<rect width="23.476" height="21.6" fill="white" transform="translate(191.069 256.2)"/>
</clipPath>
<clipPath id="clip1_18_330">
<rect width="44.0661" height="44.0661" fill="white" transform="matrix(0.735899 0.677091 -0.735899 0.677091 70.2508 187.8)"/>
</clipPath>
</defs>
</svg>
