<svg width="613" height="4809" viewBox="0 0 613 4809" fill="none" xmlns="http://www.w3.org/2000/svg">
<g opacity="0.76">
<path d="M258.84 770.972C276.602 847.016 610.176 771.114 610.176 771.114L609.5 32.8628C609.5 32.8628 213.205 -39.754 258.164 32.7209C280.338 68.4668 372.486 61.7626 384.705 98.968C402.846 154.204 186.791 131.979 183.02 188.083C178.235 259.256 452.564 175.847 494.253 243.185C545.955 326.695 141.051 248.801 125.939 336.72C113.217 410.728 372.01 406.458 350.925 479.861C327.733 560.595 43.622 482.102 5.68646 561.064C-42.0552 660.437 470.883 557.656 443.44 659.412C427.608 718.115 245.087 712.086 258.84 770.972Z" fill="#B9FF66" stroke="#B9FF66" stroke-width="1.09327"/>
</g>
<path opacity="0.68" d="M256.84 3664.58C274.601 3735.6 608.176 3664.71 608.176 3664.71L607.5 2975.2C607.5 2975.2 211.205 2907.37 256.164 2975.06C278.338 3008.45 370.486 3002.19 382.705 3036.94C400.846 3088.53 184.791 3067.77 181.02 3120.17C176.235 3186.64 450.564 3108.74 492.253 3171.63C543.955 3249.63 139.051 3176.88 123.939 3258.99C111.217 3328.11 370.01 3324.13 348.925 3392.68C325.733 3468.09 41.622 3394.78 3.68646 3468.53C-44.0552 3561.34 468.883 3465.34 441.44 3560.38C425.608 3615.21 243.087 3609.58 256.84 3664.58Z" fill="#ACF259" stroke="#ACF259" stroke-width="1.09327"/>
<g opacity="0.76">
<path d="M258.84 1117.97C276.602 1194.02 610.176 1118.11 610.176 1118.11L609.5 379.863C609.5 379.863 213.205 307.246 258.164 379.721C280.338 415.467 372.486 408.763 384.705 445.968C402.846 501.204 186.791 478.979 183.02 535.083C178.235 606.256 452.564 522.847 494.253 590.185C545.955 673.695 141.051 595.801 125.939 683.72C113.217 757.728 372.01 753.458 350.925 826.861C327.733 907.595 43.622 829.102 5.68646 908.064C-42.0552 1007.44 470.883 904.656 443.44 1006.41C427.608 1065.11 245.087 1059.09 258.84 1117.97Z" fill="#ACF259" stroke="#ACF259" stroke-width="1.09327"/>
</g>
<g opacity="0.76">
<path d="M258.84 1739.97C276.602 1816.02 610.176 1740.11 610.176 1740.11L609.5 1001.86C609.5 1001.86 213.205 929.246 258.164 1001.72C280.338 1037.47 372.486 1030.76 384.705 1067.97C402.846 1123.2 186.791 1100.98 183.02 1157.08C178.235 1228.26 452.564 1144.85 494.253 1212.18C545.955 1295.7 141.051 1217.8 125.939 1305.72C113.217 1379.73 372.01 1375.46 350.925 1448.86C327.733 1529.6 43.622 1451.1 5.68646 1530.06C-42.0552 1629.44 470.883 1526.66 443.44 1628.41C427.608 1687.11 245.087 1681.09 258.84 1739.97Z" fill="#ACF259" stroke="#ACF259" stroke-width="1.09327"/>
</g>
<g opacity="0.76">
<path d="M258.84 2319.97C276.602 2396.02 610.176 2320.11 610.176 2320.11L609.5 1581.86C609.5 1581.86 213.205 1509.25 258.164 1581.72C280.338 1617.47 372.486 1610.76 384.705 1647.97C402.846 1703.2 186.791 1680.98 183.02 1737.08C178.235 1808.26 452.564 1724.85 494.253 1792.18C545.955 1875.7 141.051 1797.8 125.939 1885.72C113.217 1959.73 372.01 1955.46 350.925 2028.86C327.733 2109.6 43.622 2031.1 5.68646 2110.06C-42.0552 2209.44 470.883 2106.66 443.44 2208.41C427.608 2267.11 245.087 2261.09 258.84 2319.97Z" fill="#B9FF66" stroke="#B9FF66" stroke-width="1.09327"/>
</g>
<g opacity="0.76">
<path d="M258.84 2666.97C276.602 2743.02 610.176 2667.11 610.176 2667.11L609.5 1928.86C609.5 1928.86 213.205 1856.25 258.164 1928.72C280.338 1964.47 372.486 1957.76 384.705 1994.97C402.846 2050.2 186.791 2027.98 183.02 2084.08C178.235 2155.26 452.564 2071.85 494.253 2139.18C545.955 2222.7 141.051 2144.8 125.939 2232.72C113.217 2306.73 372.01 2302.46 350.925 2375.86C327.733 2456.6 43.622 2378.1 5.68646 2457.06C-42.0552 2556.44 470.883 2453.66 443.44 2555.41C427.608 2614.11 245.087 2608.09 258.84 2666.97Z" fill="#ACF259" stroke="#ACF259" stroke-width="1.09327"/>
</g>
<g opacity="0.76">
<path d="M258.84 3288.97C276.602 3365.02 610.176 3289.11 610.176 3289.11L609.5 2550.86C609.5 2550.86 213.205 2478.25 258.164 2550.72C280.338 2586.47 372.486 2579.76 384.705 2616.97C402.846 2672.2 186.791 2649.98 183.02 2706.08C178.235 2777.26 452.564 2693.85 494.253 2761.18C545.955 2844.7 141.051 2766.8 125.939 2854.72C113.217 2928.73 372.01 2924.46 350.925 2997.86C327.733 3078.6 43.622 3000.1 5.68646 3079.06C-42.0552 3178.44 470.883 3075.66 443.44 3177.41C427.608 3236.11 245.087 3230.09 258.84 3288.97Z" fill="#ACF259" stroke="#ACF259" stroke-width="1.09327"/>
</g>
<g opacity="0.76">
<path d="M258.84 4123.97C276.602 4200.02 610.176 4124.11 610.176 4124.11L609.5 3385.86C609.5 3385.86 213.205 3313.25 258.164 3385.72C280.338 3421.47 372.486 3414.76 384.705 3451.97C402.846 3507.2 186.791 3484.98 183.02 3541.08C178.235 3612.26 452.564 3528.85 494.253 3596.18C545.955 3679.69 141.051 3601.8 125.939 3689.72C113.217 3763.73 372.01 3759.46 350.925 3832.86C327.733 3913.6 43.622 3835.1 5.68646 3914.06C-42.0552 4013.44 470.883 3910.66 443.44 4012.41C427.608 4071.11 245.087 4065.09 258.84 4123.97Z" fill="#ACF259" stroke="#ACF259" stroke-width="1.09327"/>
</g>
<g opacity="0.76">
<path d="M258.84 4773.97C276.602 4850.02 610.176 4774.11 610.176 4774.11L609.5 4035.86C609.5 4035.86 213.205 3963.25 258.164 4035.72C280.338 4071.47 372.486 4064.76 384.705 4101.97C402.846 4157.2 186.791 4134.98 183.02 4191.08C178.235 4262.26 452.564 4178.85 494.253 4246.18C545.955 4329.69 141.051 4251.8 125.939 4339.72C113.217 4413.73 372.01 4409.46 350.925 4482.86C327.733 4563.6 43.622 4485.1 5.68646 4564.06C-42.0552 4663.44 470.883 4560.66 443.44 4662.41C427.608 4721.11 245.087 4715.09 258.84 4773.97Z" fill="#ACF259" stroke="#ACF259" stroke-width="1.09327"/>
</g>
</svg>
